# xmcd
#
# Track frame offsets: 
#        150
#        19860
#        39307
#
# Disc length: 813 seconds
#
# Revision: 12
# Processed by: cddbd v1.5.2PL0 Copyright (c) Steve Scherf et al.
# Submitted via: ExactAudioCopy v0.99pb4
#
DISCID=19032b03
DTITLE=Rick Astley - The Ones You Love
DYEAR=1993
DGENRE=Pop
TTITLE0=The Ones You Love
TTITLE1=Cry For Help
TTITLE2=The Ones You Love (Instrumental)
EXTD=
EXTT0=
EXTT1=
EXTT2=
PLAYORDER=
